# xmcd
#
# Track frame offsets: 
#        150
#        21995
#        35470
#        57590
#        70792
#        84610
#        96562
#        108755
#
# Disc length: 1980 seconds
#
# Revision: 3
# Processed by: cddbd v1.5.2PL0 Copyright (c) Steve Scherf et al.
# Submitted via: ExactAudioCopy v0.95b4
#
DISCID=6907ba08
DTITLE=Taj Mahal - Taj Mahal
DYEAR=1968
DGENRE=Blues
TTITLE0=Leaving Trunk
TTITLE1=Statesboro Blues
TTITLE2=Checkin' Up on My Baby
TTITLE3=Everybody's Got to Change Sometime
TTITLE4=E Z Rider
TTITLE5=Dust My Broom
TTITLE6=Diving Duck Blues
TTITLE7=The Celebrated Walkin' Blues
EXTD=
EXTT0=
EXTT1=
EXTT2=
EXTT3=
EXTT4=
EXTT5=
EXTT6=
EXTT7=
PLAYORDER=
